<?xml version="1.0" standalone="no"?>
<!DOCTYPE svg PUBLIC "-//W3C//DTD SVG 20010904//EN"
 "http://www.w3.org/TR/2001/REC-SVG-20010904/DTD/svg10.dtd">
<svg version="1.0" xmlns="http://www.w3.org/2000/svg"
 width="200.000000pt" height="200.000000pt" viewBox="0 0 200.000000 200.000000"
 preserveAspectRatio="xMidYMid meet">
<metadata>
Created by potrace 1.11, written by Peter Selinger 2001-2013
</metadata>
<g transform="translate(0.000000,200.000000) scale(0.100000,-0.100000)"
fill="#000000" stroke="none">
<path d="M894 1631 c-92 -56 -47 -201 63 -201 22 0 44 10 68 31 30 27 35 37
35 76 0 38 -5 50 -34 79 -40 40 -83 45 -132 15z"/>
<path d="M575 667 c-129 -60 -126 -238 6 -370 101 -100 229 -145 389 -133 146
10 331 74 397 138 45 44 83 135 90 217 l6 68 -64 -9 c-101 -14 -262 -38 -286
-44 -20 -4 -23 -11 -23 -49 0 -32 -6 -51 -24 -72 -21 -24 -31 -28 -80 -28 -73
0 -90 18 -130 136 -26 76 -37 98 -68 122 -32 26 -47 30 -110 34 -49 2 -83 -1
-103 -10z"/>
</g>
</svg>
